# xmcd CD database file
#
# Track frame offsets:
#	150
#	15227
#	27192
#	50407
#	64547
#	79850
#	96090
#	109667
#	124070
#	139335
#	154675
#	178114
#	192855
#	206582
#	230171
#	245624
#	260251
#	280279
#	304694
#	316470
#	338372
#
# Disc length: 4714 seconds
#
# Revision: 0
# Processed by: cddbd v1.5.2PL0 Copyright (c) Steve Scherf et al.
# Submitted via: CDex 1.50
#
DISCID=1e126815
DTITLE=Phil Ogilvie's Rhythm Kings - Rhythm Club
DYEAR=2004
DGENRE=Jazz
TTITLE0=Rhythm Club
TTITLE1=Brown Eyes, Why Are You Blue?
TTITLE2=If I Had You
TTITLE3=Beau Koo Jack
TTITLE4=Jazz Pie
TTITLE5=Tennessee Lazy
TTITLE6=Wolverine Blues
TTITLE7=Boogaboo
TTITLE8=Papa's Gone
TTITLE9=Harmony Blues
TTITLE10=A Jazz Holiday
TTITLE11=Singapore Sorrows
TTITLE12=Let's Misbehave
TTITLE13=I'm Thru With Love
TTITLE14=New Orleans Shout
TTITLE15=I Must Have It
TTITLE16=Crazy Rhythm
TTITLE17=I Just Couldn't Take It, Baby
TTITLE18=Old Man Blues
TTITLE19=Creole Love Call
TTITLE20=Lawd, Lawd
EXTD=YEAR: 2004
EXTT0=
EXTT1=
EXTT2=
EXTT3=
EXTT4=
EXTT5=
EXTT6=
EXTT7=
EXTT8=
EXTT9=
EXTT10=
EXTT11=
EXTT12=
EXTT13=
EXTT14=
EXTT15=
EXTT16=
EXTT17=
EXTT18=
EXTT19=
EXTT20=
PLAYORDER=
